<mxfile host="app.diagrams.net" modified="2023-04-29T02:16:25.663Z" agent="Mozilla/5.0 (Macintosh; Intel Mac OS X 10_15_7) AppleWebKit/537.36 (KHTML, like Gecko) Chrome/112.0.0.0 Safari/537.36" etag="0UCNF2KDj6XsyokmMLLS" version="21.2.3" type="github">
  <diagram id="3228e29e-7158-1315-38df-8450db1d8a1d" name="Page-1">
    <mxGraphModel dx="773" dy="961" grid="0" gridSize="10" guides="1" tooltips="1" connect="1" arrows="1" fold="1" page="1" pageScale="1" pageWidth="500" pageHeight="229" background="#EFF1F3" math="0" shadow="0">
      <root>
        <mxCell id="0" />
        <mxCell id="1" parent="0" />
        <mxCell id="yI97bCa5uiuBW91l9z7N-3" value="" style="shape=image;verticalLabelPosition=bottom;labelBackgroundColor=default;verticalAlign=top;aspect=fixed;imageAspect=0;image=data:image/svg+xml,PHN2ZyB4bWxuczp4bGluaz0iaHR0cDovL3d3dy53My5vcmcvMTk5OS94bGluayIgeG1sbnM9Imh0dHA6Ly93d3cudzMub3JnLzIwMDAvc3ZnIiBoZWlnaHQ9IjEyOCIgd2lkdGg9IjEyOCIgdmVyc2lvbj0iMS4xIiB2aWV3Qm94PSIwIDAgMTAyNCAxMDI0IiBjbGFzcz0iaWNvbiI+PHBhdGggZmlsbD0iIzRBOTE5QiIgZD0iTTg1My4zMzMzMzMgMTk1LjA0NzYxOWE3My4xNDI4NTcgNzMuMTQyODU3IDAgMCAxIDczLjE0Mjg1NyA3My4xNDI4NTd2NDg3LjYxOTA0OGE3My4xNDI4NTcgNzMuMTQyODU3IDAgMCAxLTczLjE0Mjg1NyA3My4xNDI4NTdIMTcwLjY2NjY2N2E3My4xNDI4NTcgNzMuMTQyODU3IDAgMCAxLTczLjE0Mjg1Ny03My4xNDI4NTdWMjY4LjE5MDQ3NmE3My4xNDI4NTcgNzMuMTQyODU3IDAgMCAxIDczLjE0Mjg1Ny03My4xNDI4NTdoNjgyLjY2NjY2NnogbTAgNzMuMTQyODU3SDE3MC42NjY2Njd2NDg3LjYxOTA0OGg2ODIuNjY2NjY2VjI2OC4xOTA0NzZ6IG0tMjI4LjAxMDY2NiAxMTkuODU2NzYyYzIzLjYwMDc2MiAwIDQ2LjEyODc2MiA1LjE2ODc2MiA2Ny41ODQgMTUuNTA2Mjg2bC0xMS45OTU0MjkgNDMuMzAwNTcxYTEyNi43ODA5NTIgMTI2Ljc4MDk1MiAwIDAgMC00OC41NjY4NTctMTAuMjRjLTYuODI2NjY3IDAtMTMuMDY4MTkgMS42NTc5MDUtMTguNzI0NTcxIDQuOTczNzE1YTE1LjM2IDE1LjM2IDAgMCAwLTcuODk5NDI5IDEzLjE2NTcxNGMwIDIuOTI1NzE0IDAuNjgyNjY3IDUuNjU2MzgxIDIuMDQ4IDguMTkyIDEuNzU1NDI5IDIuOTI1NzE0IDMuOTk4NDc2IDUuNDYxMzMzIDYuNzI5MTQzIDcuNjA2ODU3IDcuODAxOTA1IDUuNDYxMzMzIDE2LjM4NCA5LjY1NDg1NyAyNS43NDYyODYgMTIuNTgwNTcxIDExLjcwMjg1NyA0LjI5MTA0OCAyMi45MTgwOTUgOS41NTczMzMgMzMuNjQ1NzE0IDE1Ljc5ODg1OCA2LjA0NjQ3NiAzLjkwMDk1MiAxMS42MDUzMzMgOC4yODk1MjQgMTYuNjc2NTcxIDEzLjE2NTcxNCA1LjY1NjM4MSA2LjI0MTUyNCA5Ljg0OTkwNSAxMy4yNjMyMzggMTIuNTgwNTcyIDIxLjA2NTE0MyAyLjUzNTYxOSA4LjU4MjA5NSAzLjgwMzQyOSAxNy4yNjE3MTQgMy44MDM0MjggMjYuMDM4ODU3LTAuMTk1MDQ4IDguNTgyMDk1LTEuNDYyODU3IDE2Ljg3MTYxOS0zLjgwMzQyOCAyNC44Njg1NzEtMy4zMTU4MSA5Ljc1MjM4MS04LjU4MjA5NSAxOC4zMzQ0NzYtMTUuNzk4ODU3IDI1Ljc0NjI4NmE3Ni44IDc2LjggMCAwIDEtMjYuMzMxNDI5IDE2LjM4NGMtMTEuMzEyNzYyIDQuMDk2LTIyLjkxODA5NSA2LjE0NC0zNC44MTYgNi4xNDRhMTU5LjU3MzMzMyAxNTkuNTczMzMzIDAgMCAxLTg1LjEzODI4Ni0yMy40MDU3MTRsMTUuMjEzNzE1LTQzLjg4NTcxNWM5LjM2MjI4NiA1Ljg1MTQyOSAxOS4yMTIxOSAxMC40MzUwNDggMjkuNTQ5NzE0IDEzLjc1MDg1OGExMTAuMjAxOTA1IDExMC4yMDE5MDUgMCAwIDAgMzMuOTM4Mjg2IDUuMjY2Mjg1IDI3Ljc5NDI4NiAyNy43OTQyODYgMCAwIDAgMTcuODQ2ODU3LTUuNTU4ODU3IDE5LjY1MTA0OCAxOS42NTEwNDggMCAwIDAgNy4wMjE3MTQtMTQuMDQzNDI4IDIxLjg5NDA5NSAyMS44OTQwOTUgMCAwIDAtOC43NzcxNDMtMTcuMjYxNzE1IDEwNC4yNTI5NTIgMTA0LjI1Mjk1MiAwIDAgMC0yMS4xNjI2NjctMTIuMDY4NTcxbC01Ljc1MzkwNC0yLjI2NzQyOWExNTcuOTg4NTcxIDE1Ny45ODg1NzEgMCAwIDEtMzAuMTM0ODU3LTE0LjMzNiA4Mi42NTE0MjkgODIuNjUxNDI5IDAgMCAxLTE5Ljg5NDg1OC0xNy44NDY4NTdjLTMuNzA1OTA1LTQuODc2MTktNi42MzE2MTktMTAuMjQtOC43NzcxNDItMTYuMDkxNDI4LTIuOTI1NzE0LTguMzg3MDQ4LTQuMjkxMDQ4LTE3LjA2NjY2Ny00LjA5Ni0yNi4wMzg4NTggMC0xMC4xNDI0NzYgMS45NTA0NzYtMTkuODk0ODU3IDUuODUxNDI4LTI5LjI1NzE0MmE2Mi42NTkwNDggNjIuNjU5MDQ4IDAgMCAxIDE3LjI2MTcxNC0yMy4xMTMxNDNjOC4zODcwNDgtNi44MjY2NjcgMTcuNzQ5MzMzLTExLjYwNTMzMyAyOC4wODY4NTgtMTQuMzM2IDkuMTY3MjM4LTIuMzQwNTcxIDE4LjUyOTUyNC0zLjYwODM4MSAyOC4wODY4NTctMy44MDM0Mjl6IG0tMjQ0Ljg4MjI4NiA1Ljg1MTQyOWw0NS4zNDg1NzEgMTgzLjQ0MjI4NWgwLjU4NTE0M2w0NS4wNTYtMTgzLjQ0MjI4NWg2My43ODA1NzJsLTY0LjY1ODI4NiAyMzIuNTk0Mjg1aC04OS4yMzQyODZMMzE2Ljk1MjM4MSAzOTMuODk4NjY3aDYzLjQ4OHoiLz48L3N2Zz4=;" parent="1" vertex="1">
          <mxGeometry x="186" y="48" width="128" height="128" as="geometry" />
        </mxCell>
        <mxCell id="nVlXWMkALdDh2w5jgLHF-1" value="&lt;font style=&quot;font-size: 27px;&quot; color=&quot;#ffffff&quot;&gt;TCP&lt;/font&gt;" style="rounded=1;whiteSpace=wrap;html=1;fillColor=#4A919B;strokeColor=none;" parent="1" vertex="1">
          <mxGeometry x="59" y="44" width="110" height="75" as="geometry" />
        </mxCell>
        <mxCell id="nVlXWMkALdDh2w5jgLHF-4" value="&lt;font style=&quot;font-size: 27px;&quot; color=&quot;#ffffff&quot;&gt;KCP&lt;/font&gt;" style="rounded=1;whiteSpace=wrap;html=1;fillColor=#003F6A;strokeColor=none;" parent="1" vertex="1">
          <mxGeometry x="331" y="44" width="110" height="75" as="geometry" />
        </mxCell>
        <mxCell id="nVlXWMkALdDh2w5jgLHF-6" value="&lt;font style=&quot;font-size: 20px;&quot; color=&quot;#ffffff&quot;&gt;延时&lt;/font&gt;" style="rounded=1;whiteSpace=wrap;html=1;fillColor=#003F6A;strokeColor=none;" parent="1" vertex="1">
          <mxGeometry x="331" y="137" width="110" height="41" as="geometry" />
        </mxCell>
        <mxCell id="nVlXWMkALdDh2w5jgLHF-7" value="&lt;font color=&quot;#ffffff&quot;&gt;&lt;span style=&quot;font-size: 20px;&quot;&gt;带宽利用率&lt;/span&gt;&lt;/font&gt;" style="rounded=1;whiteSpace=wrap;html=1;fillColor=#4A919B;strokeColor=none;" parent="1" vertex="1">
          <mxGeometry x="59" y="137" width="110" height="41" as="geometry" />
        </mxCell>
      </root>
    </mxGraphModel>
  </diagram>
</mxfile>
